PathFileType	4	(X/Y/Z)	Run_500 01
DataRate	CameraRate	NumFrames	NumMarkers	Units	OrigDataRate	OrigDataStartFrame	OrigNumFrames
120	120	4	42	mm	120	284	128
Frame#	Time	RASI			LPSI			RPSI			RTH3			LTH1			LTH2			LTH3			RTB1			RTB2			RTB3			LTB1			LTB2			LTB3			RCAL			RTOE			RMT5			LCAL			LTOE			LMT5			LACR			RACR			CLAV			C7			RUA1			RUA2			RUA3			RLEL			LUA1			LUA2			LUA3			LLEL			LMEL			RFAsuperior			RFAradius			RFAulna			LFAsuperior			LFAradius			LFAulna			LASI			RTH1			RMEL			RTH2		
		X1	Y1	Z1	X2	Y2	Z2	X3	Y3	Z3	X4	Y4	Z4	X5	Y5	Z5	X6	Y6	Z6	X7	Y7	Z7	X8	Y8	Z8	X9	Y9	Z9	X10	Y10	Z10	X11	Y11	Z11	X12	Y12	Z12	X13	Y13	Z13	X14	Y14	Z14	X15	Y15	Z15	X16	Y16	Z16	X17	Y17	Z17	X18	Y18	Z18	X19	Y19	Z19	X20	Y20	Z20	X21	Y21	Z21	X22	Y22	Z22	X23	Y23	Z23	X24	Y24	Z24	X25	Y25	Z25	X26	Y26	Z26	X27	Y27	Z27	X28	Y28	Z28	X29	Y29	Z29	X30	Y30	Z30	X31	Y31	Z31	X32	Y32	Z32	X33	Y33	Z33	X34	Y34	Z34	X35	Y35	Z35	X36	Y36	Z36	X37	Y37	Z37	X38	Y38	Z38	X39	Y39	Z39	X40	Y40	Z40	X41	Y41	Z41	X42	Y42	Z42	

284	  2.366667	935.583455	953.902172	-244.532291	810.842846	1001.906359	-396.731316	792.405438	1006.754307	-300.239446	906.185523	541.115592	-234.764520	971.375087	786.757657	-508.886895	1079.775757	721.175123	-496.674564	1067.564162	598.658358	-494.433431	917.132293	318.345410	-328.257508	858.733688	269.492646	-271.184868	843.564027	218.562550	-344.902313	1013.876746	462.486966	-416.485444	942.110527	500.199078	-493.011349	846.636366	475.067099	-423.907198	669.514343	108.906005	-361.831473	873.282694	 69.403119	-387.195406	851.232725	 59.963265	-292.294554	699.597793	577.488377	-426.894783	697.098385	370.732712	-409.964608	688.982092	385.733384	-500.569467	966.431198	1423.160226	-508.587877	942.792183	1405.469240	-113.329766	1009.251163	1408.309650	-287.534933	890.407076	1474.785971	-327.230652	880.774900	1277.881302	-64.241698	806.473269	1278.324199	-80.131254	835.857232	1205.193439	-34.846368	801.444862	1145.864029	-11.196975	880.676882	1322.198638	-575.710224	802.297911	1303.364561	-568.545132	847.527563	1239.907294	-595.919033	778.701191	1192.828857	-627.724107	735.454552	1199.566113	-554.321826	903.575975	1076.177390	-46.734560	973.218505	1018.432546	-126.048026	960.785135	971.456674	-73.400572	853.746152	1087.104800	-597.531986	918.312421	1030.770506	-503.092186	901.789287	993.739196	-560.220779	975.202760	956.330977	-443.683533	875.619756	795.003670	-162.499000	763.603001	1125.887069	-81.648531	  0.206128	  0.148043	 -0.044141	
285	  2.375000	935.963551	957.119863	-244.625604	810.617351	1005.920571	-395.332935	792.396291	1010.757107	-298.340849	886.913950	541.886253	-234.946616	973.751770	794.557637	-507.647712	1086.818214	736.525366	-494.369588	1083.170761	613.535927	-491.073366	886.989964	318.611653	-329.755340	828.670006	270.836081	-271.015964	812.060252	219.739556	-345.287426	1039.218470	469.593709	-412.632673	964.218492	500.136210	-490.507121	871.053939	465.518438	-422.944073	634.833009	110.642820	-360.962450	838.433645	 69.861215	-386.600997	816.266435	 59.978938	-291.878760	713.068546	551.991076	-430.521916	734.723266	346.496306	-410.247897	726.036499	359.140272	-500.868241	961.800557	1427.524204	-509.358170	946.476307	1410.469349	-114.120471	1008.985490	1412.202546	-289.563238	889.479783	1478.611952	-326.600160	888.230791	1281.176361	-64.561299	813.409133	1278.741262	-78.757396	846.077330	1207.107983	-34.788004	814.470282	1146.344504	-11.228588	873.275400	1329.532662	-575.830104	794.693764	1312.636516	-568.147164	837.931243	1248.012916	-596.183820	767.147654	1203.015734	-627.185982	725.478338	1210.560243	-553.104801	919.869087	1083.224094	-49.753543	991.673829	1031.687005	-131.065499	982.492431	982.582761	-79.914184	839.641447	1095.479830	-598.632656	905.039298	1037.544149	-505.540154	886.866858	1001.467091	-562.804831	974.685597	960.477259	-443.303020	875.954606	795.652371	-164.172457	776.487028	1125.563031	-81.337616	  0.263416	  0.189188	 -0.056409	
286	  2.383333	939.636823	960.838046	-241.273617	811.120816	1010.858552	-393.620879	794.077856	1015.026456	-296.563508	866.868454	544.438348	-235.525647	976.277888	803.203286	-506.414873	1092.356932	751.331941	-492.297327	1096.606498	628.664869	-487.222649	856.788515	320.527022	-330.134098	797.473939	274.404340	-270.631123	780.574395	222.688576	-345.492835	1063.060012	476.665781	-408.785106	985.099641	500.054917	-487.709146	894.959243	455.572640	-421.916091	600.292454	114.127793	-359.510619	803.440491	 70.440375	-385.909840	780.995540	 60.036789	-291.383434	728.603184	524.208091	-432.813963	774.776592	322.835094	-410.247951	765.206929	333.450425	-500.615156	957.092736	1432.992882	-510.041357	950.170658	1416.706653	-115.241471	1008.666674	1417.100267	-291.685628	888.507114	1483.260897	-326.121351	895.452472	1285.817851	-65.296129	820.296644	1281.500582	-77.694077	855.582096	1210.836877	-35.128059	826.403525	1148.796969	-11.792395	866.158779	1338.305802	-575.937101	787.446489	1323.192872	-568.050119	828.623211	1257.395431	-596.351227	756.022797	1214.429420	-626.269252	715.613896	1223.033395	-551.500396	934.541378	1092.316563	-53.352092	1008.041955	1047.063395	-136.412048	1002.097682	996.203313	-86.766448	827.031924	1106.359169	-599.137813	892.923444	1046.806782	-507.088148	873.603675	1011.553970	-564.431025	974.758581	965.816307	-442.758845	875.076719	797.748147	-165.314906	788.490230	1127.306809	-81.738019	  0.094337	  0.067754	 -0.020202	
287	  2.391667	945.524296	964.607436	-236.094446	812.112776	1016.388273	-391.478603	797.179866	1019.211018	-294.627625	846.365074	548.962865	-236.431792	978.979834	812.306398	-505.223495	1096.974836	765.416232	-490.229790	1108.061732	643.623876	-483.208665	826.694599	324.043488	-329.458591	765.701710	279.982762	-270.321754	748.754639	227.559341	-345.010536	1085.342120	483.654536	-405.419318	1005.038488	499.649124	-484.856026	918.867600	445.209866	-420.997903	566.067059	120.846032	-357.490972	767.845546	 70.913175	-385.202731	744.906995	 60.218200	-290.920865	746.728154	494.656555	-433.638656	817.227667	300.390511	-409.927617	806.375602	309.199726	-499.928187	952.438687	1439.313311	-510.595723	953.800302	1423.932733	-116.724996	1008.286908	1422.821779	-293.946954	887.435427	1488.440409	-325.855518	902.386116	1291.601904	-66.300915	827.023198	1286.259894	-76.903753	864.457634	1216.075778	-35.777984	837.253040	1152.927007	-12.648497	859.418442	1348.241169	-575.966220	780.686094	1334.739244	-567.808558	819.779781	1267.850644	-596.329009	745.552714	1226.840047	-625.031570	706.267671	1236.580075	-549.507880	947.520861	1103.106681	-57.349266	1022.073390	1063.853667	-142.144872	1019.420070	1011.632225	-93.849080	815.936861	1119.057896	-599.113155	881.967499	1057.825786	-507.871389	861.825600	1023.154737	-565.068898	975.239401	972.442778	-442.393602	872.373696	801.800760	-165.561753	799.395267	1130.901530	-82.515455	 -0.061423	 -0.044115	  0.013153	
